<svg xmlns="http://www.w3.org/2000/svg" viewBox="0 0 1200 720"><defs><linearGradient id="a" x1="0" y1="0" x2="1" y2="1"><stop stop-color="#fff7ed"/><stop offset="1" stop-color="#eff6ff"/></linearGradient><filter id="s"><feDropShadow dx="0" dy="18" stdDeviation="18" flood-color="#111827" flood-opacity=".14"/></filter></defs><rect width="1200" height="720" rx="44" fill="url(#a)"/><text x="70" y="86" font-family="Arial" font-size="34" font-weight="900" fill="#111827">AI DESIGN STUDIO PREVIEW</text><text x="70" y="128" font-family="Arial" font-size="20" font-weight="700" fill="#667085">Interior and exterior concept options before owner approval</text><g filter="url(#s)"><rect x="70" y="175" width="500" height="390" rx="34" fill="#fff"/><rect x="630" y="175" width="500" height="390" rx="34" fill="#fff"/><rect x="110" y="230" width="420" height="250" rx="24" fill="#faf3df"/><path d="M150 440h340V300l-170-85-170 85z" fill="#c9a646" opacity=".28"/><rect x="210" y="330" width="220" height="110" rx="16" fill="#fff" opacity=".85"/><rect x="670" y="230" width="420" height="250" rx="24" fill="#eaf6ff"/><path d="M720 440h320V295l-160-90-160 90z" fill="#0ea5e9" opacity=".18"/><path d="M800 440V325h160v115" fill="#c9a646" opacity=".3"/><rect x="120" y="498" width="160" height="50" rx="25" fill="#fff"/><text x="148" y="531" font-family="Arial" font-size="20" font-weight="900" fill="#9a7a24">INTERIOR</text><rect x="680" y="498" width="170" height="50" rx="25" fill="#fff"/><text x="705" y="531" font-family="Arial" font-size="20" font-weight="900" fill="#0369a1">EXTERIOR</text></g><text x="70" y="640" font-family="Arial" font-size="24" font-weight="900" fill="#111827">Concept → scope → materials → approval</text></svg>