<svg xmlns="http://www.w3.org/2000/svg" viewBox="0 0 1200 720"><defs><linearGradient id="bg" x1="0" y1="0" x2="1" y2="1"><stop stop-color="#fff"/><stop offset="1" stop-color="#f8f9fb"/></linearGradient><filter id="s"><feDropShadow dx="0" dy="18" stdDeviation="18" flood-color="#111827" flood-opacity=".13"/></filter></defs><rect width="1200" height="720" rx="24" fill="url(#bg)"/><text x="70" y="88" font-family="Arial" font-size="34" font-weight="900" fill="#111827">CONTRACTS, INVOICES & REPORTS</text><text x="70" y="130" font-family="Arial" font-size="20" font-weight="700" fill="#667085">Owner-ready documents with verified property history</text><g filter="url(#s)"><rect x="80" y="190" width="310" height="360" rx="24" fill="#fff" stroke="#e5e7eb"/><rect x="445" y="190" width="310" height="360" rx="24" fill="#fff" stroke="#e5e7eb"/><rect x="810" y="190" width="310" height="360" rx="24" fill="#fff" stroke="#e5e7eb"/><text x="122" y="250" font-family="Arial" font-size="22" font-weight="900" fill="#9a7a24">CONTRACT PDF</text><text x="487" y="250" font-family="Arial" font-size="22" font-weight="900" fill="#9a7a24">INVOICE HASH</text><text x="852" y="250" font-family="Arial" font-size="22" font-weight="900" fill="#9a7a24">SERVICE REPORT</text><g stroke="#d0d5dd" stroke-width="14" stroke-linecap="round"><path d="M125 305h215M125 350h170M125 395h205"/><path d="M490 305h215M490 350h170M490 395h205"/><path d="M855 305h215M855 350h170M855 395h205"/></g><circle cx="235" cy="482" r="45" fill="#dcfce7"/><path d="M213 482l18 18 38-48" fill="none" stroke="#047857" stroke-width="12" stroke-linecap="round" stroke-linejoin="round"/><circle cx="600" cy="482" r="45" fill="#f3e7bd"/><text x="568" y="494" font-family="Arial" font-size="32" font-weight="900" fill="#9a7a24">SHA</text><circle cx="965" cy="482" r="45" fill="#dcfce7"/><path d="M943 482l18 18 38-48" fill="none" stroke="#047857" stroke-width="12" stroke-linecap="round" stroke-linejoin="round"/></g><rect x="80" y="610" width="1040" height="44" rx="22" fill="#f3e7bd"/><text x="120" y="639" font-family="Arial" font-size="20" font-weight="900" fill="#9a7a24">Every contract, invoice and report stays connected to the property record.</text></svg>