<svg xmlns="http://www.w3.org/2000/svg" viewBox="0 0 1200 720"><defs><linearGradient id="bg" x1="0" y1="0" x2="1" y2="1"><stop stop-color="#fff"/><stop offset="1" stop-color="#f7f2e6"/></linearGradient><filter id="s"><feDropShadow dx="0" dy="18" stdDeviation="18" flood-color="#111827" flood-opacity=".14"/></filter></defs><rect width="1200" height="720" rx="44" fill="url(#bg)"/><text x="70" y="86" font-family="Arial" font-size="34" font-weight="900" fill="#111827">BEFORE / AFTER MAINTENANCE PROOF</text><text x="70" y="128" font-family="Arial" font-size="20" font-weight="700" fill="#667085">Tenant request → technician proof → owner approval</text><g filter="url(#s)"><rect x="70" y="170" width="500" height="390" rx="34" fill="#e5e7eb"/><rect x="630" y="170" width="500" height="390" rx="34" fill="#dcfce7"/><circle cx="320" cy="340" r="94" fill="#98a2b3" opacity=".42"/><path d="M220 430c70-100 160-100 230 0" fill="none" stroke="#667085" stroke-width="22" stroke-linecap="round"/><circle cx="880" cy="340" r="94" fill="#10b981" opacity=".35"/><path d="M790 360l58 58 132-156" fill="none" stroke="#047857" stroke-width="28" stroke-linecap="round" stroke-linejoin="round"/><rect x="100" y="500" width="180" height="54" rx="27" fill="#fff"/><text x="132" y="535" font-family="Arial" font-size="22" font-weight="900" fill="#475467">BEFORE</text><rect x="660" y="500" width="160" height="54" rx="27" fill="#fff"/><text x="696" y="535" font-family="Arial" font-size="22" font-weight="900" fill="#047857">AFTER</text></g><g><rect x="70" y="600" width="1060" height="42" rx="21" fill="#fff" stroke="#e5e7eb"/><rect x="70" y="600" width="760" height="42" rx="21" fill="#c9a646" opacity=".28"/><text x="105" y="627" font-family="Arial" font-size="18" font-weight="900" fill="#9a7a24">Evidence chain captured: photos, SLA, tenant verification, report</text></g></svg>