<svg xmlns="http://www.w3.org/2000/svg" viewBox="0 0 1200 720"><defs><linearGradient id="bg" x1="0" y1="0" x2="1" y2="1"><stop stop-color="#eef6ff"/><stop offset="1" stop-color="#fff"/></linearGradient><filter id="s"><feDropShadow dx="0" dy="18" stdDeviation="18" flood-color="#111827" flood-opacity=".14"/></filter></defs><rect width="1200" height="720" rx="44" fill="url(#bg)"/><path d="M0 140h1200M0 280h1200M0 420h1200M0 560h1200M180 0v720M360 0v720M540 0v720M720 0v720M900 0v720M1080 0v720" stroke="#111827" opacity=".07" stroke-width="3"/><text x="70" y="86" font-family="Arial" font-size="34" font-weight="900" fill="#111827">GPS DISPATCH & SLA TRACKING</text><text x="70" y="128" font-family="Arial" font-size="20" font-weight="700" fill="#667085">Nearest verified technician routed to the property</text><g filter="url(#s)"><path d="M180 520 C 310 400, 410 440, 520 330 S 760 230, 1010 190" fill="none" stroke="#c9a646" stroke-width="22" stroke-linecap="round"/><path d="M180 520 C 310 400, 410 440, 520 330 S 760 230, 1010 190" fill="none" stroke="#fff" stroke-width="8" stroke-dasharray="34 22" stroke-linecap="round"/><circle cx="180" cy="520" r="42" fill="#ef4444"/><circle cx="1010" cy="190" r="42" fill="#10b981"/><text x="134" y="590" font-family="Arial" font-size="22" font-weight="900" fill="#111827">PROPERTY</text><text x="910" y="154" font-family="Arial" font-size="22" font-weight="900" fill="#111827">TECHNICIAN</text><rect x="730" y="500" width="340" height="92" rx="28" fill="#fff" stroke="#e5e7eb"/><text x="760" y="540" font-family="Arial" font-size="24" font-weight="900" fill="#111827">ETA 18 MIN</text><text x="760" y="572" font-family="Arial" font-size="18" font-weight="800" fill="#047857">SLA ACTIVE · ON ROUTE</text></g></svg>